<?xml version="1.0" standalone="no"?>
<!DOCTYPE svg PUBLIC "-//W3C//DTD SVG 20010904//EN"
 "http://www.w3.org/TR/2001/REC-SVG-20010904/DTD/svg10.dtd">
<svg version="1.0" xmlns="http://www.w3.org/2000/svg"
 width="512.000000pt" height="512.000000pt" viewBox="0 0 512.000000 512.000000"
 preserveAspectRatio="xMidYMid meet">
<metadata>
Created by potrace 1.14, written by Peter Selinger 2001-2017
</metadata>
<g transform="translate(0.000000,512.000000) scale(0.100000,-0.100000)"
fill="#000000" stroke="none">
<path d="M1010 5113 c-57 -22 -92 -70 -105 -144 -3 -19 -8 -41 -10 -49 -2 -8
-7 -31 -10 -50 -5 -30 -12 -71 -40 -210 -3 -14 -8 -38 -11 -55 -3 -16 -16 -84
-29 -151 -13 -66 -26 -131 -28 -145 -4 -22 -95 -483 -102 -520 -2 -9 -6 -33
-9 -53 -3 -19 -11 -57 -17 -83 -6 -27 -12 -59 -14 -73 -2 -14 -10 -56 -18 -95
-9 -38 -18 -83 -20 -100 -3 -16 -24 -124 -47 -240 -54 -279 -131 -674 -137
-705 -4 -24 -51 -264 -59 -305 -7 -33 -34 -173 -54 -280 -11 -55 -21 -109 -24
-120 -2 -11 -21 -105 -41 -210 -20 -104 -38 -197 -40 -206 -2 -9 -6 -32 -9
-50 -3 -19 -12 -68 -21 -109 -9 -41 -18 -86 -20 -100 -2 -14 -8 -44 -13 -67
-5 -23 -7 -44 -4 -47 2 -3 171 -6 373 -6 345 0 369 1 370 17 0 10 2 25 4 33 4
20 20 105 115 595 44 231 85 440 90 465 5 25 12 56 14 70 6 36 74 392 92 480
9 41 17 86 19 100 3 19 88 462 111 575 2 11 11 58 20 105 15 76 19 97 24 135
2 19 147 -357 405 -1050 36 -99 71 -189 75 -200 5 -11 20 -49 34 -85 13 -36
46 -121 72 -190 26 -69 60 -159 75 -200 15 -41 39 -104 52 -140 184 -489 229
-605 237 -610 4 -3 117 -5 251 -5 l243 1 208 554 c115 305 213 564 218 575 5
11 36 94 70 185 34 91 68 181 76 200 7 19 81 215 164 435 83 220 163 431 178
469 l26 69 18 -84 c9 -46 20 -100 23 -119 6 -40 50 -264 101 -518 19 -95 37
-189 40 -210 3 -20 9 -53 14 -72 5 -19 11 -51 14 -70 3 -19 12 -66 20 -105 8
-38 17 -88 20 -110 4 -22 13 -67 20 -100 8 -33 17 -76 20 -95 3 -19 8 -46 11
-60 3 -14 8 -41 11 -60 4 -19 8 -42 10 -50 21 -109 74 -382 78 -405 3 -16 19
-99 36 -184 17 -85 33 -168 36 -185 3 -17 10 -58 17 -91 l12 -60 372 -3 372
-2 -5 27 c-2 16 -11 64 -20 108 -9 44 -18 91 -20 105 -2 14 -9 45 -14 70 -5
25 -12 61 -15 80 -4 19 -10 53 -15 75 -5 22 -11 55 -15 72 -3 18 -14 78 -25
133 -11 55 -22 115 -25 133 -3 17 -8 39 -10 47 -2 8 -7 29 -10 45 -2 17 -7 39
-9 50 -2 11 -13 70 -25 130 -11 61 -23 121 -26 135 -11 56 -37 187 -41 210 -2
14 -9 46 -15 72 -6 25 -12 57 -13 70 -2 12 -13 70 -24 128 -12 58 -23 116 -26
130 -11 67 -68 360 -76 395 -8 34 -99 504 -115 590 -12 72 -16 91 -20 105 -2
8 -7 29 -10 45 -2 17 -7 41 -10 55 -3 14 -12 59 -20 100 -8 41 -16 85 -19 96
-2 12 -7 37 -10 55 -3 19 -17 93 -31 164 -15 72 -29 141 -31 155 -3 14 -11 57
-19 95 -8 39 -17 86 -20 105 -3 19 -10 55 -15 80 -5 25 -12 56 -14 70 -25 154
-47 203 -106 232 -30 16 -66 18 -255 18 -195 0 -224 -2 -255 -19 -19 -10 -42
-29 -52 -42 -9 -13 -98 -240 -198 -504 -100 -264 -189 -500 -200 -525 -10 -25
-46 -119 -80 -210 -34 -91 -65 -174 -70 -185 -10 -23 -15 -34 -185 -485 -188
-496 -256 -674 -264 -688 -8 -14 -17 9 -131 313 -39 105 -82 217 -95 250 -13
33 -60 157 -105 275 -44 118 -85 224 -90 235 -5 11 -36 94 -71 185 -34 91 -77
206 -96 255 -19 50 -61 160 -93 245 -32 85 -85 225 -118 310 -33 85 -63 164
-67 175 -4 11 -11 29 -15 40 -5 11 -34 86 -64 166 -57 147 -77 179 -129 198
-29 11 -449 14 -477 4z"/>
<path d="M70 290 l0 -290 2490 0 2490 0 0 290 0 290 -2490 0 -2490 0 0 -290z"/>
</g>
</svg>
