<svg width="109" height="68" viewBox="0 0 109 68" fill="none" xmlns="http://www.w3.org/2000/svg">
<rect width="109" height="68" rx="5" fill="#2451F0"/>
<path d="M8.26782 18.3608L10.1064 8.89734C10.1914 8.45989 10.5745 8.14404 11.0202 8.14404H11.085C11.4714 8.14404 11.8177 8.38285 11.955 8.74411L14.2154 14.6901L16.4758 8.74411C16.6132 8.38285 16.9594 8.14404 17.3459 8.14404H17.4107C17.8563 8.14404 18.2394 8.45989 18.3244 8.89734L20.1631 18.3608H18.3459L17.1199 12.041L14.8211 18.1273H13.6024L11.3037 12.041L10.0849 18.3608H8.26782Z" fill="white"/>
<path fill-rule="evenodd" clip-rule="evenodd" d="M20.3066 20.6616H8.1438V19.3584H20.3066V20.6616Z" fill="white"/>
<path d="M79 58.4244V49H83.3505C84.0983 49 84.7148 49.1366 85.1998 49.4098C85.6849 49.6829 86.0437 50.0585 86.2761 50.5366C86.5085 51.0049 86.6247 51.5415 86.6247 52.1463C86.6247 53.0829 86.3216 53.8341 85.7152 54.4C85.119 54.9659 84.3105 55.2488 83.2899 55.2488H80.6523V58.4244H79ZM80.6523 53.9902H82.9867C83.6436 53.9902 84.1387 53.8244 84.4722 53.4927C84.8057 53.161 84.9725 52.7122 84.9725 52.1463C84.9725 51.5415 84.8108 51.0732 84.4874 50.7415C84.1741 50.4098 83.6991 50.2439 83.0625 50.2439H80.6523V53.9902Z" fill="white"/>
<path d="M89.8886 58.5707C89.4338 58.5707 89.0094 58.4927 88.6153 58.3366C88.2312 58.1805 87.923 57.9463 87.6906 57.6341C87.4582 57.3122 87.3419 56.9171 87.3419 56.4488C87.3419 55.7854 87.5744 55.2537 88.0392 54.8537C88.5142 54.4439 89.2418 54.239 90.2221 54.239H92.5262V53.9317C92.5262 53.6 92.4706 53.3366 92.3594 53.1415C92.2584 52.9463 92.0663 52.8049 91.7834 52.7171C91.5105 52.6293 91.1063 52.5854 90.5707 52.5854C89.7218 52.5854 88.9285 52.7073 88.1908 52.9512V51.7659C88.5142 51.639 88.9083 51.5366 89.3732 51.4585C89.838 51.3805 90.3383 51.3415 90.8739 51.3415C91.9249 51.3415 92.7232 51.5463 93.2689 51.9561C93.8247 52.3659 94.1026 53.0341 94.1026 53.961V58.4244H92.6929L92.5868 57.722C92.2937 57.9951 91.9299 58.2049 91.4954 58.3512C91.0709 58.4976 90.5353 58.5707 89.8886 58.5707ZM90.3282 57.4293C90.8233 57.4293 91.2528 57.3512 91.6166 57.1951C91.9906 57.0293 92.2937 56.8098 92.5262 56.5366V55.322H90.2524C89.7673 55.322 89.4136 55.4146 89.1913 55.6C88.9791 55.7756 88.8729 56.0488 88.8729 56.4195C88.8729 56.7805 88.9993 57.039 89.2519 57.1951C89.5046 57.3512 89.8633 57.4293 90.3282 57.4293Z" fill="white"/>
<path d="M96.8759 61C96.3302 61 95.8654 60.9317 95.4814 60.7951V59.6098C95.6532 59.6683 95.8098 59.7073 95.9513 59.7268C96.1029 59.7463 96.2544 59.7561 96.406 59.7561C96.7193 59.7561 96.972 59.7073 97.164 59.6098C97.356 59.5122 97.5227 59.3561 97.6642 59.1415C97.8158 58.9366 97.9775 58.6683 98.1493 58.3366L94.9508 51.4878H96.6637L98.9678 56.639L101.302 51.4878H103L100.074 58.0293C99.8218 58.6146 99.5489 59.1268 99.2558 59.5659C98.9729 60.0146 98.6394 60.3659 98.2554 60.6195C97.8815 60.8732 97.4217 61 96.8759 61Z" fill="white"/>
</svg>
